<?xml version="1.0" encoding="utf-8"?>
<!-- Generator: Adobe Illustrator 25.0.1, SVG Export Plug-In . SVG Version: 6.00 Build 0)  -->
<svg version="1.1" id="Layer_1" xmlns="http://www.w3.org/2000/svg" xmlns:xlink="http://www.w3.org/1999/xlink" x="0px" y="0px"
	 viewBox="0 0 963 829" style="enable-background:new 0 0 963 829;" xml:space="preserve">
<g id="_x23_000000ff">
	<path d="M70.6,30.3c5.1-2,11.9-0.4,15,4.3c2.7,5.4,0.2,11.3-0.6,16.8c7.2-0.2,14.9,0.5,20.9,4.7c2.7,2.1,5.8,3.9,7.1,7.2
		c-2.1,1.2-4.2,2.4-6.3,3.6c0.9,1.9,1.7,3.9,3,5.5c4.4,1.2,8.8-1.2,13.3-0.8c2.5,0.8,4.9,1.9,6.8,3.8c2.2,2.5,3.1,6,5.7,8.2
		c2.5,2.1,5.1,4.1,7.6,6.2c3.6-3.3,7.3-6.8,12.2-8.1c4.2-1,8.4-1.5,12.7-2c6.6,0.8,12.2,5.2,16.2,10.3c2.7,3.5,1.4,8.2,0.4,12.1
		c8.9,6.8,18.2,12.9,27.7,19c20.8,13,41.3,26.5,61.6,40.3c77.1,50.4,154.4,100.3,231.9,150.1c19.3,12.3,38.1,25.3,57.6,37.4
		c10.1,6.3,19.5,14,30.5,18.7c0,0.7,0,2,0,2.6c-4.1-1.1-7-4.3-10.5-6.5c-8.7-5.7-17.1-11.8-26-17c-10.1-6-19.1-13.7-29.1-19.9
		c-56.1-36.6-112.6-72.7-168.9-109.1c-33.6-21.4-66.7-43.4-100.2-64.8c-23.1-15.3-46.7-29.8-69.7-45.1c-4.4-3-9.4-5-13.7-8.2
		c-2-3.2-3.5-7.2-7.2-8.7c-3.8-2-8.2-1-11.9,0.4c0,0.3,0.1,1,0.1,1.3c3.4,2,7.7,2.4,10.6,5.4c-2.4,3.5-6.8,2.5-10.5,2.7
		c0,2.4-0.1,4.8-0.2,7.2c-2.4-0.5-4.8-1.4-7-2.5c0,1.8,0,3.6,0,5.4c5,3.8,12.8,4.7,17.8,0.4c5.4,4.2,11.9,6.7,17.2,11.1
		c-2.5-0.7-4.9-1.8-7.4-2.8c-4.4,2.1-8.4,5-13.1,6.3c-4.7,1.5-9.8,0.4-14.2-1.4c-6.4-3.1-9.4-10.2-11-16.7c-0.6-4.4-5-7.1-8.9-8.2
		c-8.5-0.2-15.1-6.4-23.3-8c0.2,4.6,0.9,9.2,1.8,13.7c0.5,2.2,1.2,5.1,3.8,5.5c10.6,2.7,20,8.4,29.3,14.1c3.2,2.1,5.8,4.8,8.9,7.1
		c4.7,3.5,7.9,8.6,12.8,11.7c2.8,0.7,5.2-1.7,8-1.9c6.3-0.5,13.7-1,18.4,4.2c-1.3,0.7-2.6,1.4-3.8,2.2c0.8,2.3,1.4,4.7,1.9,7.1
		c7.3-2.6,14.9-3.9,22.5-4.6c6.4-0.4,12.5,2.2,18.5,4c6.2,3.5,11.8,8.5,14.8,15.1c1.3,3,2.8,5.9,3.7,9c1,7.1,0.2,14.3-0.6,21.4
		c1.5,2.9,4.9,4.2,7.3,6.3c11.2,9.5,23.2,18.1,34.8,27.2c41.6,31.7,83.3,63.4,125,95.1c27,20.7,54.3,40.9,81.1,61.8
		c4.7,4,11.4,1,16.7,3.4c3.6,1.5,7.4,2.6,11.2,3.9c3.9,1.3,6.8,4.4,9.4,7.4c3.2,3.8,3.5,9,6,13.1c1.6,1.4,3.6,2.1,5.5,3.1
		c-1.8-0.8-3.6-1.7-5.4-2.4c0.6,2,1,4.1,2,6c21.8,16.2,43.1,33,64.7,49.4c11.3,8.3,22.2,17.3,33.9,25c0.8-0.9,1.7-1.9,2.5-2.8
		c3.1,0.6,7,1,7.9,4.7c0.9,5,0,10.1,0.1,15.1c6.1,0.2,12.3,0.9,18.4,0.2c3.9-1.1,6.6-5.9,4.7-9.6c-1.4-1.5-3.3-2.2-5-3.2
		c-0.6-3.2-1.3-6.6-0.4-9.9c1.5-1.1,3.7-2.2,5.6-1.2c4.2,2.2,7.9,5.4,10.6,9.4c3.2,5,7,9.7,10.9,14.2c1.2,1.7,3.4,1.6,5.2,1.6
		c1.8-1.6,1.9-4.4,3.4-6.3c4.1-5.7,10.9-9.5,17.9-9.5c-0.6-6.7,1.3-13.3,4.9-18.9c-2.5-5-2.6-11.1-0.4-16.2
		c3.6-9.6,11.9-16.8,21.2-20.6c5.3-1.9,8.8-6.7,14-8.8c-0.1-2.6-1.6-4.8-2.7-7.1c-0.4-2.8-0.1-5.8-1.5-8.3c-0.7-1.8-2.1-3.5-1.4-5.5
		c0.5-2.2,1.5-4.3,2-6.6c-0.6-2.6-3.8-3.2-5.9-4.4c4.1-4.4,9.4-7.4,14.3-10.7c4.7-3.1,9.9-5.4,15.1-7.6c3.4,0.3,6.7,0.7,10.1,0.4
		c4.8-0.5,8.6,2.8,12.6,4.8c3.2,1.5,4.8,5.2,4.9,8.6c0.2,3.6,1.2,7.1,1.9,10.7c5.3,1.5,10.9,0.1,16.1,1.6c5.1,1.5,10.6,1.5,15.4,3.7
		c4.5,2.3,9.7,4,12.3,8.7c6-1.5,12.1-0.7,18.1,0.7c12.3,1,23.8,7.2,32.2,16c4,4.1,6.3,9.5,8.2,14.8c7.5-4.5,16.5-2.2,24.7-3.9
		c1-1.6,1.8-3.4,3.2-4.6c2.3-1.4,4.8-2.4,7.1-3.9c4.8-3.8,11.6-1.2,16.2,1.6v55.1c-4.5,3-7,7.9-10,12.2c-4.4,7.1-5.1,15.5-6.6,23.5
		c-0.1,1.4,0,2.8,0.1,4.2c-5.1,2.2-6.4,8.2-10.9,11.2c-2.4,2-5.2,3.4-7.7,5.3c-1.5,1.8-2.4,4-3.5,6c1.5,1.5,3,3.1,4.4,4.6
		c8.8-1,17.8,0.6,26.1,3.5c2.9,1,5.5,2.6,7.9,4.5v2.1c-7.2-6.1-17-8.1-26.2-8.6c-3.2-0.3-6.4,0.7-9.5,0.1c-1.4-1.5-2.3-3.5-4.1-4.5
		c-3.1-1-6.4,0.3-9.5-0.7c-2.5-2.1-3.9-5.2-6.5-7.2c-2-1.2-4.2-1.7-6.2-2.8c-2.3-2-3.3-5.8-6.7-6.2c-11.8-3.6-24.2-1.1-35.9,1.5
		c-2.9,1.2-6.5,1.5-8.5,4c-0.7,4.9-0.9,10,0,15c1.5,1.4,3.7,1.7,5.6,2.3c0.8,1.6,1.7,3,2.5,4.6c-1,1.5-2.7,2.4-4.1,3.5
		c4,5.5,8.8,10.6,11.9,16.7c4.9,9.4,12.1,17.8,14,28.6c1.8-0.8,3.6-1.6,5.5-2.3c0.9,1.9,2.1,3.7,3,5.6c-0.1,2.3-0.8,4.5-0.6,6.8
		c1.5,2.6,4,4.5,5.4,7.1c1.9,4.2,0.6,9,1.8,13.3c1.3,3.1,4.3,5.1,5.8,8.1c1.4,2.9,2.8,5.8,3.7,8.9c1.6,11.8-1.8,24,1.9,35.5
		c1.4,4.7,6.2,6.8,10.1,8.9c3.6,1.8,6.6,4.6,9.1,7.8c3.7,4.6,9,7.4,14.5,9.5c3.4,1.3,6.4,3.5,10,4.5c4.3,0.1,8.7-0.4,13-0.4V829H0
		v-78.2c10.5-0.3,21,0,31.5-0.4c8-7.3,10.5-18.9,18.7-26.2c2.5-2.1,2.3-5.6,3.7-8.4c1.3-2,3.3-3.3,5-4.9c2.8-2.4,4.1-6,6-9
		c1.4-1.9,3.5-3.1,5.3-4.6c3.2-2.5,5.3-6.1,7.9-9.2c1.9-2.5,4.8-3.8,7.2-5.8c3-2.4,4.5-6.1,7.7-8.2c1.6-1.2,3.4-2.2,5.1-3.3
		c-2.1-2.6-4.3-5.2-7.5-6.4c-7.9-3.2-17-4.4-23.8-10c-5.9-5.4-7.2-13.7-7.5-21.3c0-5.8-6.6-8.4-7.5-13.9c-0.6-2.5-0.1-5.3-1.2-7.7
		c-2.2-4.4-2.5-9.5-2-14.3c2.1-3.9,3.4-8.5,7-11.4c-5.2,0-10.5-0.3-15.4,1.4c-1.8,0.9-3.5-0.4-5-1.3c-0.1-2.2,2.9-2.5,4.5-2.4
		c5.3,1.1,10.7,0.9,16,0.2c1.5-1.3,1.5-3.5,2-5.3c-1.7-1.2-5.8-1.3-5.3-4.1c2.7-4.8,7.2-8.4,9.4-13.5c2.3-5.4,6.1-10,8.7-15.3
		c5.5-8.6,16.3-10.4,24.4-15.5c9.9-6.3,14.7-17.4,21.7-26.3c11.8,25.4,23.1,51,35.4,76.2c0.4,1.4,1.9,1.8,3,2.5
		c1.9-5.1-1.5-10.3,0.6-15.3c-1-1.5-1.8-3-2.7-4.5c5-3.7,11.2-4.5,17.1-5.6c4.9-0.6,11.5-0.9,14.1,4.2c0.4,3.4-0.1,6.8,0,10.2
		c2.4-2.1,4.1-4.6,6.2-6.9c1.4-0.5,2.9,0,4.3,0c0,2.8-1.6,5.1-2.9,7.4c1.8-1,3.7-2.1,5.7-2.9c-0.3,2.5-0.8,4.9-1.2,7.3
		c1.3-0.6,2.7-1.2,4-1.8c5.1-2.5,11-0.7,16.1,1c1.9,0.6,3.9,1.6,4.4,3.7c0.3,6.1-3.4,12.1-8.9,14.7c-4.1,1.7-5.7,6.6-9.8,8.4
		c-3.6,1.8-7.3,3.5-11.2,4.5c-3.7,0.8-5.9,4.4-7.9,7.3c-3.4,7.2-4.6,15.3-8.9,22.2c-1.4,2.2-4.3,3-5.6,5.4
		c-3.7,5.6-4.8,12.3-6.5,18.7c1.3,0.7,2.6,1.3,3.9,2c-0.4,1-1,2-0.1,2.9c1.2,1.6,1.9,4.4,4.3,4.4c2.9,0.3,6.3-0.6,8.8,1.4
		c5.9,2.9,6.8,11,13.1,13.4c2.5,0.6,5.2,0.1,7.5,1.1c3.1,2.5,3.4,6.8,3.5,10.5c0,11.3-6.3,21.2-9.4,31.7c-0.9,4.1-2.3,8.2-2.5,12.4
		c1.1,4.3,5,8.4,9.7,8c17.9,0.3,35.9,0.3,53.9,0c2.6-5.1,9.4-3.4,13-7.3c2-2.1,2.6-5.1,3.4-7.8c2.8-10.5,6-21.1,6.5-32.1
		c1-7,1-14.1,3.1-20.9c1.8-5.6,0-11.4-0.9-17c-1.2-5.1-1.8-10.4-3.6-15.3c-1.8-2-3.9-3.8-6.5-4.7c-2.7,0.1-5.4,1.2-8,0
		c-3.4-1.4-7.1-2.6-9.9-5.1c-2.3-1.8-1-5.1,0.1-7.2c-3.7-1.9-7.5-3.7-11.1-5.7c-2.7,2.4-4.6,5.5-6.4,8.5c-4.5-0.6-9.3-1.1-12.9-4.1
		c-3.1-2.3-3.6-6.6-3.3-10.2c2.2-4.1,4.9-7.8,7.1-11.9c2.5-4.8,5.4-9.6,9.9-12.8c5.6-0.9,10.7,2.3,15.4,5c1.2,2.2,3.2,5.1,1.7,7.6
		c-1.4,2.6-2.8,5.2-4.1,7.9c3.6,3.4,7.6,6.8,12.5,8.2c2.2-7.3,4.6-14.6,8.2-21.3c1.9-3.7,4.9-6.7,6.4-10.6c2.9-7,7.7-12.9,12.1-19
		c1.3-1.9,2.9-3.6,3.2-5.9c2.2-9.1,0.4-18.5,1-27.7c10.8-0.1,21.6-3.2,32.3-0.8c0.1-0.7,0.2-2,0.3-2.7c-2.9-0.5-5.9-0.7-8.7-1.6
		c-1.6-2.1,0.8-5-0.4-7.4c-2-4.6-0.4-9.5,0.4-14.2c0.8-3.3,1.2-7.1,3.9-9.6c4.4-3.8,10.5-6.1,16.3-5c3.4,1,6.5,2.7,9.7,4.2
		c2.3,1,3.3,3.4,4.3,5.4c3.4,6.2,3,13.9,7.4,19.6c2.1,2.8,3.1,6.9,6.5,8.4c6.2,1.3,12.7,0.5,18.7,2.8c-1,4-1.9,8-1.9,12.1
		c-0.9,11.7-1.8,23.4-0.4,35.1c1.7,10.2,6,19.8,9.3,29.5c1.5,4,3.4,8.1,2.8,12.5c-0.7,6.9-0.8,13.9-3.3,20.5c-2-0.2-3.9-0.4-5.9-0.6
		c-0.2-3.5,0.2-7,0.5-10.5c-1.2,0.1-2.4,0.2-3.6,0.3c-2.7-3.8-3.1-8.6-2.5-13.1c0.6-4-0.2-8.4-3.3-11.2c0.5,10.6,2.4,21.1,3.6,31.6
		c1,8.9,4.8,17.2,6.3,25.9c2.2,9.6,2.2,19.7,5.7,29.1c1.8,4.6,2.8,9.3,4.1,14c1.5,5.9,8.1,8.9,9.3,14.9c-1.8,0.7-3.6,1.4-5.5,2
		c-9.2,3.7-19.7,2.3-28.7,6.6c-0.2,4,0.6,7.9,3.6,10.8c4.3,0.3,8.6,0.2,12.8-0.6c4.8-0.7,10,0.9,14.6-0.8c3.6-3.8,4.2-9.3,5.5-14.2
		c1.8-5.5,0.5-11.2,1.2-16.8c0.7-5.6,0.3-11.4,2.1-16.7c1.2-1.2,3.1-1.3,4.6-1.9c1.2-4.3,2.6-8.8,2-13.3c-0.6-5.5,0.1-11.1,2.1-16.2
		c2.7-9.2,4.6-18.7,8.4-27.6c2.3-8.1,5-16,7.8-24c-3.6,1.7-7.3,3.4-11.2,4.4c-4.5,1.1-8.9,3.5-13.7,2.5c-2.7-0.6-5.6-0.9-8.1-2.2
		c-3-2.7-2.8-7-2.4-10.7c0.3-3.7,3.5-7.1,7.4-6.8c4.3-0.6,8,2.1,11.1,4.7c6.3-3.8,11.5-9.1,16.8-14.2c2.3-1.9,1.5-5.1,0.7-7.5
		c-2.2-5.3-3.4-11-5.2-16.5c-1.1-3-0.4-6.1,0.1-9.2c1.1-7.1,4.7-13.6,9.2-19c3.7-3.9,8.8-5.9,13.2-8.8c2.3-1.5,2.8-4.5,3.7-6.8
		c-2.3,0.2-4.7,0.3-7,0.6c-0.8-3.5-1.5-7-1.6-10.7c0.2-3.9,1.4-7.7,2.3-11.5c1-4.4,2.6-9,6.2-12c4.1-3.7,10.1-4.5,15.4-3.8
		c3.4,1.6,5.9,5,7.4,8.4c1.5,7.9,1.1,16.5-2.2,23.9c0.7,0.9,1.4,1.9,2.3,2.8c1.7-0.1,3.9,0.2,5-1.4c4.8-5.8,7.6-12.9,10.3-19.8
		c2-6.1,0.6-12.6,0.6-18.8c-3.9-1.1-7.9-1.2-11.8-2c-7.2-2.5-13.7-6.7-19.6-11.5c-4.3-3.3-6.5-8.4-8.8-13.2
		c-3.4-6.5-4.4-13.9-5.2-21.1c-0.5-4.6,1.6-8.8,3.5-12.9c2.6-6.5,7.1-12,11.7-17.2c4-4.8,9.8-7.5,15.4-10c-5.9-5-12.3-9.2-18.6-13.6
		c-21.2-14.8-42.5-29.4-63.8-44.2c-16.9-11.1-33.2-22.9-50-34.1c-27.8-19.3-56-37.9-83.7-57.3c-10.8-7.2-21.4-14.9-32.5-21.7
		c-1.8-1.4-3.8,0.4-5.6,1c-12.6,6.2-27.5,5.9-40.6,1.5c-7-3.4-11.6-10.1-14.8-17c-3.1-6-5.5-12.6-5.2-19.5
		c-0.4-4.9,2.1-9.3,2.2-14.1c-6.1-5.2-13.6-8.8-21.1-11.6c-6.2-2.7-12.7,1.9-18.9-0.1c-5.6-2.3-10.1-6.5-15.2-9.7
		c-4.1-2.5-7.2-6.2-10.8-9.3c-2.8-2.6-7-2-10.4-3.5c-8.1-3.8-14.2-10.5-19.6-17.5c-7-7.5-13.7-15.3-18.4-24.5c-1.8-4.3-3-9-2.7-13.8
		c0.6-7.9,9.4-13.1,8.1-21.5c-2.8-0.3-5.6-0.7-8.4-1.1c0.1-5.3,4-9.3,6.1-13.9c2.2-4.1,3-8.8,5.2-12.8
		C62.7,33.1,66.8,31.7,70.6,30.3 M63.9,42.3c1.2,1.5,2.9,2.3,4.8,2.6c-0.1-0.6-0.2-1.7-0.2-2.2C66.9,42.5,65.4,42.3,63.9,42.3
		 M168.4,82.3c0,0.5,0,1.6,0.1,2.1c3,1,6,2,8.7,3.6c2.7,3.5,4.6,7.8,4.7,12.2c2.6-1.6,2-4.9,1.6-7.5C179.7,87.8,175,82.3,168.4,82.3
		 M150.8,85.8c-2.7,1.7-6.4,3.5-5.5,7.3c3.2-1.6,4.8-5.4,8.2-6.8c3.3-1.6,7.8-0.3,10.7-2.9C159.6,83,154.8,83.5,150.8,85.8
		 M65.4,84.5c-4.8,1-5.1,10.8,0.7,10.3c3.2,0.7,6-1.6,6.3-4.8C71.9,86.8,69,83.2,65.4,84.5 M165.5,86.8c2.2,1.3,4.7,2.3,6.7,3.9
		c2.4,2.6,3.1,7.1,7.2,7.5C180.2,90.9,172.6,84.7,165.5,86.8 M149.9,91.7c1.1-0.1,2.2-0.2,3.3-0.4c0.2-0.6,0.4-1.8,0.6-2.3
		C152.1,89.3,150.3,89.7,149.9,91.7 M139.6,105.3c1.6,6,4,12.2,9,16.2c5.8,3.5,13.5,4,19.5,0.7c2.5-0.9,3.8-3.1,3.9-5.6
		c-4.5-0.7-7.3,4.7-11.9,4.1c-5.8,0.9-12.1-1.3-15.4-6.3c-2-2.6-1-6-1.5-9C142.2,105.3,140.5,105.3,139.6,105.3 M145.1,105.4
		c-2,5.7,3,11.9,8.8,12.5c4,0.8,10.2,1.9,12.2-2.6c-5.8,1.3-13.3,2.3-17.6-2.9C146.8,110.4,148.4,105.4,145.1,105.4 M198,153.5
		c-3,0-6.1,1-7.9,3.5c0.5,0.3,1.4,0.8,1.9,1.1c5.9-1.2,11.9-3.3,18-1.9c7,0.3,14,2.2,20,5.9c5.6,5.1,9.6,12,11.4,19.4
		c0.8,5-0.2,10.1,0,15.1c0.9,1.2,2.5,1.6,3.9,2.1c0.5-6.5,0.7-13.1,0.1-19.6c-2.1-5.6-4.3-11.4-8.5-15.9c-5-5.9-12.7-8.6-20-10.3
		C210.6,151.1,204.3,153.6,198,153.5 M194.5,159.9c1.4,2.2,3.2,4.2,5.5,5.4c1.9-0.1,3.8-1.2,5.8-0.9c5.2,1.7,11.3,0.1,15.9,3.9
		c7.9,4.5,10.8,13.7,11.9,22.2c1.5,1.7,3.6,2.8,5.5,4.1c0.8-1.4,1.7-2.9,1.6-4.6c0.7-9-3.4-17.8-9.2-24.5c-6-6.4-15.3-6.8-23.5-7.9
		C203.4,156.9,198.7,158,194.5,159.9 M208.6,167.2c-1,7.1-4,14.9-10.5,18.7c0.3,1.8,1.3,3.7,0.4,5.5c-2.7,5.1-5.7,10.1-7.6,15.6
		c0.7,2.6,3.8,4.2,6.3,4.9c5.2,0.9,10.8,1,15.8-0.8c5.1,3.3,10,7.1,15.8,9.1c7.2,5.1,14.3,10.4,21.7,15.3
		c35.2,24.1,70,48.9,105.4,72.7c27.3,18.7,54.7,37.2,81.9,56.1c14.9,9.8,29.3,20.4,44.3,30.2c4.3-0.2,8.5-1.5,12.7-2.3
		c-6.1-5.6-13.1-10.1-19.4-15.6c-76.1-58.3-152.4-116.3-228.8-174.1c-5.3-3.7-10.8-7.2-15.8-11.3c0.3-4.2,0.3-8.9-2.5-12.4
		c-2.8-3.5-5.1-7.7-9.2-10C215.9,166.8,212.1,167.4,208.6,167.2 M167.8,179.2c-2.2,5.6-1.5,11.9-1.2,17.8c3.1,9.1,6.5,19,14.5,25
		c5.5,4.7,13.1,5.1,19.9,6.1c5.5,1,10.9-1,16.2-2c3.5-0.7,6.7-2.4,9.9-4c-2.2-1.1-4.4-3.3-7-2.3c-6.5,1.8-13.3,4.4-20.1,2.9
		c-9.8-1-20.2-5.3-25.1-14.3c-5.3-7.8-2.9-17.6-3.2-26.4C172,179.7,169.6,178.7,167.8,179.2 M173.9,181.4c-2.4,3.8-1,8.4-1.4,12.6
		c-0.8,8.3,4.1,16,10.4,21c7,4.6,15.7,6,24,5.8c4.2-0.5,9-0.6,12.4-3.5c-2.6-1.4-5-4.3-8.2-3.5c-5.2,1.2-10.5,0.7-15.7-0.5
		c-2.1-1-3.7-2.8-5.6-4.1c-2.2,0.9-3.9,2.9-6.5,2.5c-2.2-3.2-0.5-7.2-1.1-10.7C181.3,194,181.1,185.1,173.9,181.4 M486.5,404.7
		c-4.6,1.1-8.6,3.7-12.2,6.6c-11.5,8.2-15.9,24.4-11.1,37.5c5.2,16.1,24.7,24.2,40.5,20c10.8-3.6,17.9-13.3,22.9-23.1
		c2.5-8,2.2-16.7-0.4-24.6C518,408.1,501.3,402.5,486.5,404.7 M540.7,427.4c0.1,2.8,0.1,5.5,0.3,8.3c1.2,0.5,2.5,1,3.5,1.9
		c4.8,3.9,10.2,7.1,15.3,10.7c18.6,12.8,37.2,25.5,55.8,38.2c4.5,3,8.8,6.4,13.7,8.7l-0.6-1.6c-4.5-4-9.6-7.3-14.3-11.1
		c-16.7-12.6-33.3-25.3-50-38C556.7,438.7,549.2,432.2,540.7,427.4 M540.7,437.2c-0.4,3.7-0.4,7.5-1.1,11.3c-2,7.5-6.1,14.2-11,20.1
		c-4,5.1-9.8,8.6-16,10.5c-0.6,7.7,1.5,15.2,1,23c0.2,5.5-2.6,10.5-2.4,16c0.3,3.3-0.6,6.5-0.7,9.8c-0.6,10.7-4,20.9-6.1,31.3
		c-1.5,6.8-4.8,12.9-8.1,18.8c-2.1,6.3-5,12.3-6.7,18.6c-0.6,4.1-1.2,8.1-1.5,12.2c1.2,11.3,7,21.3,10.5,31.9
		c1.6,7.6,2.7,15.3,4.8,22.8c1.6,4.8,0.8,10.1,3.7,14.5c2.8,4.3,3.4,9.6,3.7,14.6c0.8-0.5,1.7-1,2.5-1.5c0.7,1.3,2,2.4,2.2,3.9
		c0.8,7.2,1.2,14.5,1.3,21.8c0.3,5.5,2.8,10.6,3,16.1c0,5,4.5,7.9,7.7,10.9c3.5-3.3,4.3-8.3,6.2-12.5c4.1-7.9,8.2-15.9,10.3-24.5
		c1.3-5.6,3.6-11,3.6-16.8c0-7.4,3.8-13.8,6.4-20.5c5-8.8,10.7-17.2,14.7-26.5c-1.4-5.3-0.7-10.9-1.3-16.3c-3.3,3.8-6.3,8-8.9,12.3
		c-1,1.5-0.8,3.4-0.9,5.1c-2.1,0.1-4.2,0.2-6.2,0.3c-0.6,1.9-0.9,3.9-2.1,5.6c-1.5,1.5-3.8,1.6-5.6,2.4c-2.2,1.9-1.8,6.1-5,7
		c-2,1.3-4.5-0.6-5.1-2.5c4.4-9.3,6.9-19.4,11.6-28.6c1.3,0.4,2.5,0.9,3.8,1.3c1.5-2.2,3-4.4,4-6.9c3.7-8.2,8.8-16,10.9-24.8
		c-2.1-4.2-6.1-7.5-7.5-12.1c-0.7-6.4,3.7-11.7,7-16.7c1.8-2.9,5.9-5.3,5.1-9.2c-0.3-3.9-4.8-4.8-6.8-7.6c-3.7-4.8-1.3-11-1.1-16.4
		c0.2-3.9-0.4-8.8,3.4-11.2c5.6-3.2,12.8-2.7,18.7-0.4c4.8,2.1,5.3,7.6,7,11.9c5,3.5,7,10.8,4.1,16.1c-1.6,3-5.4,1.8-8.1,1.6
		c0.9,2,1.3,4.1,2.3,6c2,2.3,5.4,0.8,8,1.6c2.1,2,4.5,4,5.4,6.9c2.6,6.3,0.1,13.1-1.1,19.4c-1.1,4.6-0.8,9.6-3.2,13.8
		c-1.2,2.2-2.9,4.4-2.7,7.1c0.2,6.2,4.7,11.1,5.6,17.2c2.4,7.1-1.6,14.1-4.4,20.5c-1.9,3-0.5,6.7,0.8,9.6c1.9,4,2.5,8.6,5.4,12.1
		c4.7,1.2,10.2,0.8,14.2,4.1c2.9,2.2,6.5,4.3,7.7,8c2.2,5.8,0,11.9-1,17.7c1.8,5.4,2.7,11.1,3.8,16.7c3.3,0.8,6.7,1.4,10,2.6
		c5-5.8,12.6-7.9,19.9-9.2c2.1-5.4,4-10.9,7.6-15.5c5.2-6.1,11.5-12.1,19.6-13.7c-0.5,1-1.2,1.6-2.2,1.9c-6.9,3-12.8,8-17.3,14
		c-2.8,4.8-6,10-5.2,15.8c-1.8-0.3-3.5-1-5.3-0.5c-6.3,1.3-13.6,3.4-16.3,10c-2.6-1.8-5.7-2.7-8.9-2.8c0.6,4.6,3.9,8.2,4.5,12.8
		c0.6,4.6,1.3,9.1,2,13.7c5.6-0.1,11.2,0.1,16.8-0.6c1.4-1.1,1-3.3,2-4.7c1.4-2,3.4-3.5,5.2-5c2.8-2.3,6.6-2.1,9.9-3.2
		c2.8-2.1,4.8-5.2,7.4-7.5c3.2-2.3,7-3.8,10.5-5.6c1-1.4,0.4-3.4,0.7-5.1c0-5.2,2.8-9.8,2.8-15c-0.3-1.5,0.3-2.5,1.8-2.8
		c-2-2.3-3.2-5.2-4.9-7.8c-2.5-4.2-2.2-9.2-2.2-13.9c-6.3,1.2-13.4,1.8-18.9-2.1c-2.1-2.2-4-4.7-5.5-7.4c-1.9-5.7-1.5-11.9,0.4-17.6
		c3-4.6,8.4-6.6,13.5-7.7c3.5,0.3,7,1,10.3,2.2c2.2,1.5,4,3.5,6.2,5c-0.1-2.9-0.4-5.9-0.1-8.8c0.3-2.7,2-5,3.2-7.3
		c-0.5-2.2-1.9-4.1-3-6.1c1-0.5,2-1,3-1.5c-0.2-2.2-0.3-4.3-0.5-6.5c2.6-1.2,5.2-0.1,7.6,1c1.4-6.5,3.5-13.1,7.4-18.6
		c2-2.3,1.1-5.5,1.6-8.2c1.1-6.5,2.4-13.4,6.5-18.8c2.4-3.7,5.9-6.6,7.5-10.8c-2.1,0-4.3,0-6.4,0.2c-4.2,0.8-8.3-1.1-12.3-2.5
		c4,1,7.9,2.6,12,2.5l-0.7-1.2c-4.8-2.5-10.3-1.5-15.5-2.7c-5.5-0.7-11.1-2-16.7-1.4c-5.3,1.6-11,1.5-16,3.9c-2.9,1.2-6.7,3.8-9.5,1
		c-3.3-3.3-7.8-4.9-11.7-7.3c-2.1-2.8-1.7-6.6-1.7-9.9c-2-1.5-4.5-2.8-5.5-5.2c-0.3-2.5,0.1-5.1-0.1-7.6c-1.2-2.3-4-3.6-4.3-6.3
		c-0.6-4.9-0.1-10,1.8-14.6c0.9-1.9,1-4.4-0.7-5.9c-4.5-3.9-9.7-6.9-14.5-10.4c-25.3-17.4-50.6-34.9-76-52
		C544.4,438.8,542.6,437.9,540.7,437.2 M912.4,458.9c0.2,4,0.5,8.1,0.3,12.1c1.9,1.5,3.8,3.1,5.3,5.1c2.5,3.6,1.6,8.2,2.5,12.3
		c3.9-2.7,6.9-6.3,9.8-10c1-1,0.1-2.2-0.4-3.2c-1.5-2.5-1.4-5.5-2.3-8.2c0.8-1.3,1.5-2.6,2.4-3.9c-1.3-2.3-0.7-4.7,0.2-7
		C924.1,455.5,917.6,455.5,912.4,458.9 M84.7,539.2c-3.2,0.3-5.5,2.7-7.8,4.7c-3.6,3.2-6.4,7.2-8.5,11.4c-0.5,3.5,0.3,7.1-0.2,10.6
		c-1,5.8-0.2,12-3.3,17.3c8.4,0,16.7-1,25.1-0.9c14.5-1,29.1-0.7,43.6-2.1c4-4.1,10-3,15.1-2.9c-4.1-9.4-8.6-18.7-12.9-28.1
		c-6.3-13.2-12.1-26.7-18.8-39.7C110.3,523,98.5,533.5,84.7,539.2 M850.9,535.8c-2.5,4.8-1.1,10.3-1.6,15.4c2.8-0.4,5.3-1.8,7.9-2.9
		c12.3-3.1,25.3-4.8,37.7-1.4c-3.6-3.8-7.8-7.3-12.7-9.1c-4.4-0.7-9-1.7-12.5-4.7c-1.8-2.2-1.8-5.4-3.2-7.9
		c-1.4-2.9-4.4-4.3-6.8-6.2C854.8,523.4,853.6,530.2,850.9,535.8 M458.6,547.6c-2.1,1.4-4.9,1.1-6.9,2.5c0,2.2,2.4,3.4,3.6,5
		c0.5,2.7-0.8,5.3-1.2,7.9c2.8-1.3,5.1-3.3,7.9-4.5c2.9,0.9,5.1,3.4,8.2,4.1c-0.5-2.2-1.4-4.3-1.9-6.4c0.1-2.2,2.5-2.8,4-3.9
		c0.2-0.9,0.3-1.8,0.5-2.8c-2.2,0-4.5,0.4-6.7-0.3c-2.1-2-2.9-4.9-4.2-7.5C460.9,543.7,460.1,545.9,458.6,547.6 M317.7,556.7
		c-2.5,1.7-4.2,4.5-5.1,7.3c-0.3,3.7,1.6,7.6,5.5,8.4c3.1-1.5,6.2-3.2,8.3-6c0.9-3,0.5-6.7-2.1-8.7
		C322.6,555.8,319.9,556.1,317.7,556.7 M348.6,556.7c-5.1,1.6-7.4,9.1-2.9,12.7c1.8,2.6,5.1,2.5,7.9,2.1c3.9-2.4,4.9-8.4,1.9-11.9
		C353.9,557.5,351.2,555.3,348.6,556.7 M724.9,562.9c-3.1,1.9-4.6,5.4-6.8,8.2c-4.5,5.3-6.1,12.5-6.6,19.3
		c7.8-6.1,13.8-14.3,21.4-20.7c-0.2-3.8-1.3-7.5-2.8-11C728.5,560.3,726.8,561.7,724.9,562.9 M61,570.9c0.6-0.1,1.9-0.2,2.5-0.2
		c0.1-1.2,0.2-2.5,0.3-3.7C61.7,567.1,61.6,569.4,61,570.9 M61.3,578.5c-0.8,1.4-0.8,3.4-0.5,5C62.8,583.6,63.1,578.9,61.3,578.5
		 M321.5,582.3c-2.9,2.6-3.8,6.7-1.9,10.2c0.8,3,5.1,2.9,6.6,0.6c1.7-2.2,4-5.4,1.8-8C326.6,582.7,323.9,582.4,321.5,582.3
		 M345.5,582.4c-1.3,1.8-2.7,3.7-3.6,5.7c-1.6,4.6,5.4,8.9,8.7,5.4c3-2.4,2.2-6.8,0.5-9.7C349.6,582.4,347.4,582.6,345.5,582.4
		 M88,584.2c-8.1,0.3-16.2,0.3-24.2,1.4c0.8,1.6,2.3,2.5,3.7,3.3c0,2.2-0.1,4.4-0.1,6.6c1.5,0.3,2.9,1.2,4.5,0.9
		c4-0.8,8.1-0.2,12.1-1.3c6-1.3,11.8-3.6,18-3.7c2.8-0.1,5.2,1.6,7.9,2.4c4.1-0.3,7.8-2,11.8-2.8c3.2-0.9,6.7-0.2,9.8-1.8
		c3-1.4,5.9-3,8.8-4.5c-4.4-1.2-8.8-2.5-13.3-2.1C114.1,583.8,101,582.9,88,584.2 M286.8,604.8c0.3,0.7,0.7,1.3,1,2
		c-4.6,4.2-6.4,10.7-11.3,14.8c-3.5,2.7-2.4,7.5-2.8,11.4c2.6,2.6,6.1,2.7,9.6,2.7c1.2,3.9,1.9,8.1,4.1,11.6
		c0.5-4.7,0.7-9.4,1.1-14.1c1.4-9.5,3.1-18.9,3.3-28.5C290.1,604.8,288.5,604.8,286.8,604.8 M323.9,618.8c2-0.4,4.2-0.7,5.6-2.3
		c1-2.8,0.2-6-2.6-7.3C322.9,610.2,321.3,615.5,323.9,618.8 M62,612.2c2.8,6.3,1.5,13.2,1.5,19.8c-0.3,7,1.5,14.8,7.1,19.4
		c7.1,4.7,15.8,5.4,23.6,8.4c3.5,2,5,6,6.7,9.5c3.9-2.7,6.3-6.9,9-10.6c-2.3-0.5-4.7-0.9-6.8-2c-1.5-1.2-2.7-2.8-4-4.1
		c4.3-3.4,8.7-6.8,12.6-10.8c2.6-2.7,4.7-5.9,7.3-8.7c5.9-6,10.3-13.2,14-20.7c-5.6,0.2-11.6,0.6-16.8-2c-10.1,3.3-21,2.1-31.2,0.2
		C77.4,608.9,69.6,610.3,62,612.2 M342.3,611.5c-0.6,2.7,0,7.1,3.6,7c3.6,0.7,5.2-5,2.3-6.8C346.6,610.1,344.3,611.3,342.3,611.5
		 M792.4,615.3c-7,10-17.8,16.5-28.8,21.4c-3.4,1.8-7.5,1.4-11,3.1c0.9,0.6,1.9,1.1,2.9,1.7c0.1,4.3-0.2,8.6-1,12.9
		c-2.1-0.1-4.2-0.2-6.3-0.4c-0.2,6.1,0.6,12.6-2.1,18.3c-1.9,4.5-2.8,9.4-5.4,13.6c-5.7,9.7-4.9,21.4-3.5,32.2
		c-0.8,9.6,6.5,16.8,11,24.5c15.6,0.2,31.2-0.3,46.8-0.2c5,0.3,10-0.9,15-0.9c13,0.4,26.1,0.4,39.1,0.1c4.4,0.2,8-2.6,11.4-4.9
		c4.3-3,6.7-7.6,10.1-11.4c-2.3-6.6-6.8-12.1-11.6-17c-5.3-6.2-7.6-14.1-10.4-21.5c-2-3.5-2.7-8.2-0.8-11.9c1.4-2.5,1.2-5.5,0.7-8.1
		c-1.4-1.4-2.9-2.8-4.2-4.2c-1.9,0.8-3.8,1.7-5.7,2.5c0.4-1.4,0.9-2.8,1.3-4.2c-2.2-0.1-4.4,0-6.5,0.1c1.2-1.6,2.2-3.4,2.9-5.3
		c-7.4-0.2-12.9-5.9-18.6-9.9c-9.3-8.6-14.5-20.6-23-30C794,615.5,793,615.4,792.4,615.3 M57.2,616.1c0.6,2.2-0.4,6,2.4,6.9
		c0-2.2-0.2-4.3-0.3-6.4C58.8,616.5,57.7,616.2,57.2,616.1 M662.9,644.9c-4.2,8.4-3,20.5,5.7,25.5c5.3,2.4,11.4,2.2,16.6-0.4
		c-0.1-6,2.9-11.3,5.2-16.7c1.2-2.2-0.2-4.5-1-6.5c-3.1-5.3-9.7-7.2-15.4-7.5C669.9,640,665.7,641.7,662.9,644.9 M457.3,652
		c0.5,2.4-1,4.3-2.4,6.1c-3.4,8.2-4.6,17.5-10.1,24.8c-4.3,5.6-6.6,12.5-7.9,19.4c0,6.6-1.2,13.3-4.5,19.1c-3.8,7.7-9,15.4-8.3,24.4
		c25.8-0.6,51.5-3.4,77.3-5.6c1.2-5.3-0.5-10.9-3.2-15.4c-2.7-4.9-5-10.1-8.6-14.5c-2.8-3.2-2.9-7.6-4.2-11.5
		c-1.5-4.8-0.9-10-2.7-14.7c-5.4-7.1-11.2-14.2-14.6-22.5c-1.4-4.4-2.8-8.9-4.7-13.1C461,648.6,456.9,648.6,457.3,652 M568.2,684.1
		c-3.5,4.1,0.1,9.6-1.9,14.2c-2.6,4.4-6,8.3-8,13c-3.6,2.5-6.5,6.2-7,10.7c-1.1,6.8-2.9,14.2-0.3,20.8c1,2.5,4.1,1.3,6.2,1.6
		c0.1-1.5,0.1-3.1,1.4-4.1c7.8-8.2,17.8-13.9,27.8-18.9c8.3-2.2,16-6.9,24.8-7c-0.7-0.6-1.4-1.3-2.1-1.9c-3.3,0-6.6,0.1-9.9-0.1
		c-7.7-0.9-13.7-7.2-16-14.3c-1.8-6.5-1.5-13.6,0.8-20c-1.8-3.5-3.7-6.8-5.4-10.3C574.5,672.8,571.9,678.8,568.2,684.1 M603.3,671
		c2.6,3.5,3.8,7.7,6.4,11.2c2.1,3.1,5.3,5.4,7.5,8.4c1.2,1.6,2.5,3.2,3.9,4.6c1.3-4.9,1.5-10.4-1.7-14.7c-1.8-2.2-3.1-5.2-5.9-6.3
		C610.4,672.5,607,671.1,603.3,671 M584.6,681.2c-2.2,8.3-1,17.6,4.5,24.4c0.5-0.1,1.1-0.2,1.7-0.3c0.2,1.9,1.5,3.4,3.4,3.8
		c4.3,2.2,9.2,1.5,13.9,1.5c-2.8-4.3-5-9.3-9.3-12.2c-5-3.6-7.2-9.6-10.3-14.7C587.3,682.5,586.3,680.7,584.6,681.2 M125.4,686.6
		c-4.8,1.5-10.1,1.7-14.5,4.3c-2.4,1.3-4.7,2.6-7.2,3.6c-3.8,1.3-6,4.7-8.6,7.6c-3.6,4.5-8.9,7.2-11.8,12.2c-1.9,3.1-6,4.6-6.8,8.4
		c-1.5,5.4-6.8,8.8-12,9.6c-4.3,4.7-10,9.5-10.2,16.3c6.9,0.5,13.8,0,20.7-0.9c7,1.1,14-1.2,21.1-0.4c10.2,0.8,20.5-1,30.7,0.6
		c14.3,1.6,28.7,0.4,43-0.5c1.2-7.3,7.5-12.4,9-19.6c1.1-5.5,2.2-11.2,1.6-16.9c-0.5-4.7-1.5-9.9-5.4-13c-2.1-2.1-5.3-1.3-8-1.7
		c-6.9-1.2-14.1-2.1-20-6.2c-3.3-2.7-7.3-4-11.1-5.8C132.3,683.9,128.9,685.9,125.4,686.6 M589.4,723.4c-4.5,2.7-9.7,4.8-12.9,9.2
		c-0.3-0.6-0.9-1.8-1.2-2.4c-6.2,4.5-13.4,8-18.2,14.2c3.2,0,6.4-1,9.6-1.1c8.6,2.1,17.5,0.8,26.2-0.1c8.3-1.1,16.6-0.7,24.9-1.7
		c1.2-2.8,2.2-5.9,1.3-8.9c-1.6-5.9-4.4-11.4-7.9-16.4C603.5,716.8,596.1,719.5,589.4,723.4 M292.9,726.5c-1.4,6.5-1.6,13.4-0.3,20
		c17.8,0.5,35.6,0.5,53.4-0.7c0-2.2-0.1-4.5-0.3-6.7c-11.2,2.2-23,4.1-34.1,0.6c-5-1.2-11.2-1.2-14.7-5.5c-1.4-4.3-1-9-1.5-13.4
		C293.8,722.2,293.5,724.5,292.9,726.5z"/>
	<path d="M894.3,313.2c0.4-4.5,6.5-5.1,9.5-3c2.3,1.6,2.6,4.6,2.5,7.2c-1.8,1.5-3.5,3.7-6.2,3.3C896.8,320.1,893.1,317,894.3,313.2
		 M896.9,310.8c-0.2,1.7-0.5,3.5-0.7,5.2c0.1,2,2.4,2.6,3.8,3.6c2.6-0.8,6-3.3,4-6.3C903,310.2,899.6,310.4,896.9,310.8z"/>
	<path d="M904.4,332.6c4.2-1,9.7-1.5,12.5,2.5c1.6,2.2,4.1,5.2,2.3,8.1c-2,3.1-5.8,5.7-9.7,5.2c-3.3-1.4-6.4-3.6-8.1-6.8
		c-1.5-2.1,0-4.6,0.5-6.8C902.1,333.5,903.2,332.8,904.4,332.6 M904.4,334.8c0.5,2.1-0.8,3.7-2.1,5.2c1.8,3.6,5.2,6.9,9.5,6.8
		c2.6-0.5,4.9-2.6,5.9-5c0.1-3-2.4-5.2-4.3-7.1C910.4,333.9,907.2,333.2,904.4,334.8z"/>
	<path d="M876.5,361.5c5.1-0.5,10.2,0.9,14.6,3.5c2.2,2.2,2,5.8,1.6,8.7c-2.7,6.5-11.1,9-17.2,6c-3.7-2.2-6.2-6.8-4.8-11.1
		C872,365.9,874.4,363.8,876.5,361.5 M875.8,364.6c1.1,0.4,2.2,0.8,3.4,1.3c-2.1,0.5-4.7,0.2-6,2.2c-2.1,2.1-1.6,5.4,0.4,7.5
		c4.2,5.6,14.2,4.2,17-2.1c1.1-3.5-0.4-7.7-4-9C883.2,363.1,878.6,361.8,875.8,364.6z"/>
	<path d="M890.6,398.9c5.6-3.4,12.7-3.5,18.7-1c5.9,1.9,8.9,7.8,12,12.7c2.6,3.7,0.9,8.4-1,11.9c-2.9,5.4-9.6,7.1-15.3,7.2
		c-4.6,0.3-8.9-1.8-13.4-2.4c0.5,3.2,3.7,2.9,6.1,3.2c-2.1,0.2-4.2-0.2-6.1-1.1c-1.5-3.5-5.6-4.4-7.8-7.2
		C878.9,414.4,882.4,402.8,890.6,398.9 M883.6,409.6c-0.4,5.3-0.5,12.1,5.1,14.8c-0.1-1.3-0.1-2.5-0.2-3.8c0.7,0.6,1.4,1.2,2.1,1.8
		c6.1,7.3,19.3,6.6,24.9-0.9c0.8,0.8,1.6,1.5,2.4,2.3c2-3.6,4-7.9,2.4-12.1c-2.2-4-4.8-7.8-8.2-10.9c-3.8-2.5-8.6-3.7-13.1-3
		C892.3,398.9,885.2,402.5,883.6,409.6z"/>
	<path d="M479.4,419.4c9.2-9.2,27-8.2,33.9,3.4c-0.5,0.2-1.6,0.5-2.1,0.7c0.7-0.1,2.1-0.2,2.8-0.3c2.6,7.3,4.4,16,0.3,23.1
		c-4.3,7.1-12.9,9.6-20.4,12c-5.5-1.2-12.2-1.6-15.4-6.9c-1.9-3.1-4.1-6.2-5.6-9.6C470.4,433.9,473.9,425.3,479.4,419.4
		 M491.8,431.7c-2.2,0.1-4.3,0.3-6.5,0.8c1.2,2,3,3.9,2.8,6.4c-0.8,2-1.8,3.9-2.4,6c3.1-1.8,5.9-4.7,9.7-4.5
		c1.6,1.8,3.4,3.3,5.4,4.6c-0.7-2.3-1.6-4.5-1.8-6.9c1.2-1.7,3-2.8,4.5-4.2c-2.1-0.7-4.4-0.9-6.2-2.2c-1-1.7-1.7-3.7-2.5-5.5
		C493.7,428,492.8,429.9,491.8,431.7z"/>
	<path d="M677.4,451.5c5-0.5,10.8-0.4,14.7,3.4c6.1,4.7,8.8,12.7,7.6,20.2c-0.1,6.7-5.4,12-11.3,14.3c-4.7,2.5-10.4,3.6-15.4,1.6
		c-5.3-2.2-7.5-8-9.2-13c-0.9-6.9,0.3-14.7,5.2-20C671.4,455.4,674.1,453,677.4,451.5 M677.3,453.4c-3.9,1.9-7.3,4.9-9.5,8.6
		c-3,5-3,11.1-2.5,16.8c1,0.3,2,0.6,3,0.9c0,2-0.4,4.3,1.1,5.9c3,5,10,5.7,15,3.8c4.6-2,9.9-3.9,12.3-8.7c4.3-9.6,0.1-22.7-9.8-27
		C683.8,453.2,680.5,453,677.3,453.4z"/>
	<path d="M711.3,468.3c2.9-0.9,7.1-0.3,8.9,2.5c3.5,4.2,0.4,11.2-4.7,12.5c-2.1,0.8-5.4,1.1-6.4-1.4
		C706,477.8,707,471.1,711.3,468.3 M709.3,478.7c0.5,2.2,3.1,2.6,4.6,3.9c2.4-1,5-2.3,5.8-4.9c1.4-2.4-0.1-5-1.5-6.9
		c-1.8-1.2-4.2-1.3-6.2-1.1C709.2,471.6,708.7,475.5,709.3,478.7z"/>
	<path d="M951.6,524.6c2.6-3.7,7-5.7,11.4-6.5v1.9c-4.3,0.2-7.1,3.7-10.3,6.1c-1.8,6.6,5.9,9.7,10.3,12.6v1.8
		c-4.3-2.3-8.6-5.2-11.4-9.3C950.3,529.3,950.6,526.7,951.6,524.6z"/>
	<path d="M668.2,630.5c-6.7-1.9-5.9-15.1,1.9-14.4c6.6-0.8,11.8,9.4,6.1,13.5c0.2-2.1,1.4-4.2,0.6-6.3c-0.6-3.3-4-7.1-7.6-5.7
		c-4.9,1.3-5.3,9.2-1,11.4c2.5,0.8,5.2,0.3,7.7,0.5C674,631.7,670.7,630.5,668.2,630.5z"/>
	<path d="M949.3,634.6c5.3-0.5,11.5-2.1,13.7-7.6v3.5c-7.2,5.5-16.8,6.4-25.6,6c0.2,5.1-0.5,10.2-2.9,14.7
		c3.6,3.8,7.9,7.3,10.1,12.1c2.9,5.4,4,11.5,4.3,17.6c4.7-0.6,9.3-1.7,14-1.3v1c-6.2-0.9-12.5,0.5-17.6,4.1c2-4.6,2.9-10,0.6-14.7
		c-2.7-7-6.4-15.9-14.6-17.5c1.8-2.6,3.5-5.4,4.2-8.6c0.3-3.2-0.7-6.4-1.3-9.5C939.3,635.3,944.3,635.5,949.3,634.6z"/>
	<path d="M952,647.1c3-2.7,7.4-1.7,11-1.1v2.6c-4.6-4.5-12-1-14.4,4.1c-2.8,4-0.8,9.2,2.3,12.3c3.8,2.9,8.3,0.4,12.1-1.1v1.1
		c-3.4,0.8-6.7,3.5-10.3,2.2c-3.2-0.9-6.4-3.6-6.3-7.2C945.7,655,948.1,650,952,647.1z"/>
	<path d="M644.4,673.6c3.1-0.6,7.1-0.9,9.2,1.8c4.8,4.1,4.2,12.6-1,16.2c-3.4,2.5-8.9,3.1-12-0.2c-3.2-3.7-2.8-9.2-1.8-13.7
		C640.3,675.9,642.3,674.6,644.4,673.6 M644.3,675.4c-6.3,2.2-6.1,11.1-2.1,15.4c2.4,2.4,6.1,1.8,8.9,0.5c4.4-3.1,5.8-10.1,1.8-14.1
		C651.1,674.2,647.2,674.6,644.3,675.4z"/>
</g>
</svg>
